<svg width="18" height="20" viewBox="0 0 18 20" fill="none" xmlns="http://www.w3.org/2000/svg">
<path d="M13.757 7.303C13.9037 7.16854 13.9909 6.98132 13.9995 6.78253C14.0082 6.58374 13.9375 6.38966 13.803 6.243C13.6685 6.09634 13.4813 6.00909 13.2825 6.00047C13.0837 5.99184 12.8897 6.06253 12.743 6.197L7.273 11.212L5.28 9.22C5.13783 9.08752 4.94978 9.0154 4.75548 9.01882C4.56118 9.02225 4.37579 9.10097 4.23838 9.23838C4.10097 9.37579 4.02225 9.56118 4.01883 9.75548C4.0154 9.94978 4.08752 10.1378 4.22 10.28L6.72 12.78C6.8566 12.9167 7.04069 12.9954 7.23388 12.9997C7.42708 13.004 7.61448 12.9335 7.757 12.803L13.757 7.303ZM17.25 3C14.587 3 11.992 2.057 9.45 0.15C9.32018 0.0526335 9.16228 0 9 0C8.83772 0 8.67982 0.0526335 8.55 0.15C6.008 2.057 3.413 3 0.75 3C0.551088 3 0.360322 3.07902 0.21967 3.21967C0.0790175 3.36032 0 3.55109 0 3.75V9C0 14.001 2.958 17.676 8.725 19.948C8.90172 20.0176 9.09828 20.0176 9.275 19.948C15.042 17.676 18 14 18 9V3.75C18 3.55109 17.921 3.36032 17.7803 3.21967C17.6397 3.07902 17.4489 3 17.25 3ZM1.5 4.478C4.077 4.326 6.58 3.388 9 1.678C11.42 3.388 13.923 4.326 16.5 4.478V9C16.5 13.256 14.047 16.379 9 18.442C3.953 16.379 1.5 13.256 1.5 9V4.478Z" fill="#F78D4F"/>
</svg>
